<?xml version="1.0" standalone="no"?>
<!DOCTYPE svg PUBLIC "-//W3C//DTD SVG 20010904//EN"
 "http://www.w3.org/TR/2001/REC-SVG-20010904/DTD/svg10.dtd">
<svg version="1.0" xmlns="http://www.w3.org/2000/svg"
 width="150.000000pt" height="50.000000pt" viewBox="0 0 150.000000 50.000000"
 preserveAspectRatio="xMidYMid meet">

<g transform="translate(0.000000,50.000000) scale(0.100000,-0.100000)"
fill="#000000" stroke="none">
<path d="M785 382 c-3 -3 -5 -47 -5 -99 0 -86 1 -93 20 -93 19 0 20 7 20 98 0
81 -3 99 -15 99 -8 0 -17 -3 -20 -5z"/>
<path d="M856 383 c-3 -4 -6 -48 -6 -100 0 -86 1 -93 20 -93 19 0 20 7 20 94
0 71 -3 95 -14 99 -8 3 -17 3 -20 0z"/>
<path d="M50 353 c0 -16 -3 -58 -7 -95 -6 -65 -5 -68 16 -68 19 0 21 6 21 50
0 28 4 50 8 50 5 0 15 -21 23 -47 9 -28 21 -48 29 -48 8 0 20 20 29 48 8 26
18 47 23 47 4 0 8 -22 8 -50 0 -44 2 -50 21 -50 20 0 21 3 14 88 -8 99 -9 102
-35 102 -13 0 -23 -15 -36 -50 -10 -27 -21 -50 -25 -50 -4 0 -15 23 -25 50
-14 40 -22 50 -41 50 -18 0 -23 -5 -23 -27z"/>
<path d="M1161 358 c-16 -16 -18 -25 -9 -35 9 -11 15 -10 35 9 24 22 25 22 38
4 12 -16 12 -23 -3 -48 -9 -17 -32 -43 -49 -59 -18 -15 -33 -31 -33 -34 0 -3
32 -5 70 -5 63 0 70 2 70 20 0 16 -7 20 -31 20 l-31 0 31 35 c36 41 39 67 11
95 -27 27 -74 26 -99 -2z"/>
<path d="M1330 355 c-20 -22 -21 -25 -6 -31 10 -4 25 1 36 11 16 15 22 15 35
5 24 -20 18 -35 -36 -94 l-51 -56 71 0 c64 0 71 2 71 20 0 15 -7 20 -29 20
l-29 0 29 31 c36 38 39 81 7 103 -33 23 -71 20 -98 -9z"/>
<path d="M282 301 c-21 -13 -31 -57 -18 -82 10 -21 19 -24 69 -26 l57 -2 0 58
0 59 -49 0 c-27 0 -53 -3 -59 -7z m66 -49 c4 -28 -24 -40 -45 -19 -14 13 -14
19 -3 32 18 22 44 15 48 -13z"/>
<path d="M420 248 c0 -51 2 -58 19 -58 16 0 20 8 23 43 2 34 7 42 23 42 11 0
21 7 23 16 2 12 -7 16 -43 16 l-45 0 0 -59z"/>
<path d="M546 295 c-22 -22 -20 -30 12 -54 l27 -22 -25 3 c-17 2 -25 -2 -25
-12 0 -17 27 -24 61 -16 35 9 33 53 -3 68 -28 11 -28 11 -5 17 13 3 23 11 23
16 -1 17 -48 17 -65 0z"/>
<path d="M662 294 c-27 -19 -29 -64 -4 -87 23 -21 75 -22 92 -2 14 17 8 19
-42 15 -20 -1 -28 3 -28 16 0 14 7 16 40 11 33 -4 40 -2 40 12 0 23 -31 51
-56 51 -11 0 -30 -7 -42 -16z m56 -22 c2 -7 -6 -12 -17 -12 -21 0 -27 11 -14
24 9 9 26 2 31 -12z"/>
<path d="M930 290 c-24 -24 -25 -48 -5 -77 12 -18 25 -21 70 -21 l56 1 -3 56
-3 56 -48 2 c-36 2 -53 -3 -67 -17z m70 -25 c17 -20 5 -45 -20 -45 -11 0 -23
7 -26 15 -6 15 11 45 26 45 4 0 13 -7 20 -15z"/>
</g>
</svg>
